<svg width="885" height="442" viewBox="0 0 885 442" fill="none" xmlns="http://www.w3.org/2000/svg">
<g clip-path="url(#clip0_3_396)">
<path d="M874.857 10.4688C870.086 21.0798 864.615 32.8955 858.336 45.4737C793.296 175.78 640.781 389.289 271.14 205.127C16.0204 78.0245 -138.258 37.2079 -227.151 71.7963" stroke="#5101FD" stroke-width="3.58" stroke-miterlimit="10"/>
<path d="M862.133 216.186C773.298 318.625 619.16 396.318 349.129 261.789C94.0095 134.681 -60.2693 93.8643 -149.162 128.453" stroke="#FF00FC" stroke-width="3.58" stroke-miterlimit="10"/>
<path d="M857.733 287.349C764.653 365.157 618.596 404.936 388.124 290.111C133.004 163.009 -21.2744 122.186 -110.167 156.774" stroke="#FC57AC" stroke-width="3.58" stroke-miterlimit="10"/>
<path d="M854.109 345.972C760.779 401.609 625.106 417.077 427.125 318.438C172.005 191.329 17.7262 150.513 -71.1661 185.101" stroke="#FCAA55" stroke-width="3.58" stroke-miterlimit="10"/>
<path d="M851.063 395.208C760.292 432.013 636.202 431.507 466.12 346.766C211 219.658 56.7215 178.841 -32.1708 213.429" stroke="white" stroke-width="3.58" stroke-miterlimit="10"/>
<path d="M867.643 127.132C789.506 252.408 632.283 393.959 310.135 233.461C55.0154 106.359 -99.2634 65.5354 -188.156 100.124" stroke="#A402FB" stroke-width="3.58" stroke-miterlimit="10"/>
</g>
<defs>
<clipPath id="clip0_3_396">
<rect width="885" height="441.942" fill="white" transform="matrix(-1 0 0 1 885 0)"/>
</clipPath>
</defs>
</svg>
