<?xml version="1.0" encoding="UTF-8" standalone="no"?>
<!DOCTYPE svg PUBLIC "-//W3C//DTD SVG 1.1//EN" "http://www.w3.org/Graphics/SVG/1.1/DTD/svg11.dtd">
<svg xmlns="http://www.w3.org/2000/svg" xmlns:dc="http://purl.org/dc/elements/1.1/" xmlns:xl="http://www.w3.org/1999/xlink" version="1.1" viewBox="79.38164 85.52964 587.2474 554.38736" width="587.2474" height="554.38736">
  <defs/>
  <metadata> Produced by OmniGraffle 7.13 
    <dc:date>2023-03-31 12:56:25 +0000</dc:date>
  </metadata>
  <g id="Canvas_1" stroke="none" stroke-dasharray="none" fill="none" fill-opacity="1" stroke-opacity="1">
    <title>Canvas 1</title>
    <g id="Canvas_1: Layer 1">
      <title>Layer 1</title>
      <g id="Group_2">
        <g id="Graphic_8">
          <path d="M 462.865 184.277 C 490.406 176.06 516.238 172.966 538.649 176.038 C 566.037 179.787 586.485 192.78 597.772 213.61 C 615.105 245.579 610.355 293.432 584.428 348.363 L 584.163 348.931 L 397.924 392.603 C 384.734 395.689 369.273 404.464 355.499 416.659 L 220.608 536.139 C 197.732 556.401 171.399 566.394 156.579 560.441 C 149.955 557.777 146.114 552.201 145.463 544.306 C 141.637 497.713 165.828 435.305 211.847 373.084 C 279.249 281.941 378.993 209.315 462.865 184.277 Z" stroke="white" stroke-linecap="butt" stroke-linejoin="round" stroke-width="3.58"/>
        </g>
        <g id="Graphic_7">
          <path d="M 431.57 186.601 C 482.229 171.476 529.587 169.621 565.635 184.336 C 592.074 195.121 610.654 214.474 619.364 240.288 C 633.163 281.191 622.2 335.212 588.49 392.404 L 588.118 393.027 L 395.383 397.406 C 381.774 397.714 365.133 403.955 349.726 414.528 L 198.496 518.303 C 174.064 535.064 148.562 540.505 133.504 532.155 C 125.555 527.741 121.585 519.956 122.032 509.634 C 124.39 455.401 156.963 389.901 211.39 329.949 C 274.607 260.308 356.674 208.954 431.56 186.596 Z" stroke="#fcaa55" stroke-linecap="butt" stroke-linejoin="round" stroke-width="3.58"/>
        </g>
        <g id="Graphic_6">
          <path d="M 388.63 183.698 C 467.391 160.186 543.12 164.046 591.606 200.444 C 657.998 250.277 656.032 348.089 586.721 443.831 L 586.221 444.518 L 392.18 402.289 C 378.518 399.318 361.034 402.379 344.211 410.697 L 178.682 492.488 C 153.799 504.783 129.18 505.694 114.436 494.873 C 105.153 488.056 101.149 477.186 103.167 464.256 C 112.744 402.774 154.126 335.779 216.704 280.453 C 268.92 234.291 329.627 201.32 388.63 183.698 Z" stroke="#fc57ac" stroke-linecap="butt" stroke-linejoin="round" stroke-width="3.58"/>
        </g>
        <g id="Graphic_5">
          <path d="M 339.161 404.969 C 357.17 399.689 375.025 400.365 388.312 407.101 L 577.434 503.051 L 578.103 502.295 C 660.289 409.744 675.305 298.391 615.467 225.211 C 578.556 180.068 517.77 155.22 444.291 155.241 C 410.471 155.248 375.976 160.518 342.164 170.615 C 302.64 182.415 264.057 200.8 228.631 225.053 C 158.486 273.074 108.051 339.642 90.264 407.681 C 86.1069 423.575 89.6828 437.977 100.319 448.242 C 114.15 461.583 137.801 465.358 162.086 458.12 L 162.213 458.074 L 339.161 404.969 M 339.161 404.969 L 338.785 403.725" stroke="#ff00fc" stroke-linecap="butt" stroke-linejoin="round" stroke-width="3.58"/>
        </g>
        <g id="Graphic_4">
          <path d="M 303.266 142.8 C 359.629 125.976 418.532 123.922 473.748 137.388 C 547.439 155.372 605.076 198.685 636.061 259.347 C 686.268 357.647 656.37 481.344 561.663 567.134 L 560.802 567.918 L 383.813 411.662 C 371.376 400.678 353.517 395.399 334.823 397.165 L 150.242 414.621 C 126.519 416.866 104.742 408.353 92.0095 391.845 C 80.7126 377.206 78.1045 358.21 84.8574 339.75 C 111.756 266.199 171.218 202.332 248.002 164.512 C 265.992 155.652 284.49 148.401 303.273 142.798 Z" stroke="#a402fb" stroke-linecap="butt" stroke-linejoin="round" stroke-width="3.58"/>
        </g>
        <g id="Graphic_3">
          <path d="M 275.496 99.9309 C 352.456 76.9547 434.203 85.5674 505.674 124.181 C 577.152 162.791 629.172 226.443 652.141 303.405 C 689.375 428.148 642.912 562.359 536.527 637.378 L 535.46 638.127 L 378.727 415.858 C 367.681 400.194 350.445 389.739 331.451 387.178 L 143.956 361.944 C 120.945 358.846 101.386 345.353 90.2917 324.917 C 79.3292 304.727 78.6598 281.308 88.4387 260.655 C 125.22 183.022 193.392 124.437 275.496 99.9309 Z" stroke="#5101fd" stroke-linecap="butt" stroke-linejoin="round" stroke-width="3.58"/>
        </g>
      </g>
    </g>
  </g>
</svg>
